<?xml version="1.0" encoding="utf-8"?>
<!-- Generator: Adobe Illustrator 19.2.1, SVG Export Plug-In . SVG Version: 6.00 Build 0)  -->
<svg version="1.1" id="layer" xmlns="http://www.w3.org/2000/svg" xmlns:xlink="http://www.w3.org/1999/xlink" x="0px" y="0px"
	 viewBox="0 0 652 652" style="enable-background:new 0 0 652 652;" xml:space="preserve">
<style type="text/css">
	.st0{fill:#3CA9E5;}
	.st1{fill:#2853C3;}
	.st2{fill:#1A4199;}
	.st3{fill:#60BEFF;}
</style>
<g>
	<path class="st0" d="M70.2,252.7l82.9,47.9v48.8L26.3,276.2L67,252.7C68,252.1,69.2,252.1,70.2,252.7"/>
	<path class="st1" d="M153.1,251.7l-42.2,24.4l42.2,24.4V251.7z"/>
	<path class="st2" d="M153.1,251.7l40.7,23.5c1,0.6,1.6,1.7,1.6,2.8v95.7l-42.3-24.4V251.7z"/>
	<path class="st1" d="M195.4,373.8l-40.7,23.5c-1,0.6-2.2,0.6-3.3,0l-82.9-47.9v-48.9L195.4,373.8z"/>
	<path class="st3" d="M26.3,276.2v95.7c0,1.2,0.6,2.3,1.6,2.8l40.7,23.5v-97.7L26.3,276.2z"/>
	<path class="st0" d="M68.6,398.2l42.2-24.4l-42.2-24.4L68.6,398.2z"/>
	<path class="st1" d="M440,325.1c-1.9-22.2-20.3-39.3-42.6-39.5h-2c-5.1,0.2-10.2,1.3-14.9,3.4l-1,0.4h-0.5
		c-15.3,7.1-25,22.5-24.8,39.3v0.8c1.2,23.6,20.6,42.3,44.2,42.5h24.5c1.3,0,2.4-1.1,2.4-2.4v0v-13.6c0-1.3-1.1-2.4-2.4-2.4l0,0
		h-25.6c-10.6-0.4-19.8-7.4-23.1-17.6H437c1.6,0,3-1.4,2.9-3.1c0,0,0,0,0,0v-7.7c0-0.2,0-0.3,0-0.5 M419.6,320.4h-45.2
		c2.2-6.1,6.7-11.2,12.5-14l0.9-0.5c12.3-4.9,26.4,1.1,31.3,13.4c0.2,0.4,0.3,0.8,0.4,1.2 M299.9,285.7c-8.1,0.3-16,3-22.6,7.7v-4.9
		c0-0.8-0.7-1.5-1.5-1.5c0,0,0,0,0,0h-15.9c-0.8,0-1.5,0.7-1.5,1.5c0,0,0,0,0,0v81.8c0,1.3,1.1,2.4,2.4,2.4h14
		c1.3,0,2.4-1.1,2.4-2.4c0,0,0,0,0,0v-41.5c0-13.4,10.9-24.3,24.4-24.3c0.8,0,1.5,0,2.3,0.1c12.6,1.5,22.1,12.2,22,25v40.7
		c0,1.3,1.1,2.4,2.4,2.4h14.2c1.3,0,2.4-1.1,2.4-2.4l0,0v-41.4c-0.1-23.9-19.4-43.1-43.3-43.1C300.9,285.6,300.4,285.6,299.9,285.7
		 M522.4,286.1c-0.4-0.4-1.2-0.4-1.6,0l-30,30.1l-29.6-29.6c-0.4-0.4-1.2-0.4-1.6,0l-12.1,12.1c-0.4,0.4-0.4,1.2,0,1.6l29.6,29.6
		l-30.3,30c-0.4,0.4-0.4,1.2,0,1.6l11.8,11.8c0.6,0.6,1.5,0.6,2.1,0l29.8-29.8l29.6,29.6c0.4,0.4,1.2,0.4,1.6,0l12.1-12.1
		c0.4-0.4,0.4-1.2,0-1.6l-29.6-29.6l30-30c0.4-0.4,0.4-1.2,0-1.6C534.2,298.1,522.4,286.1,522.4,286.1z M582.4,285.3
		c-24.4-0.1-44.3,19.5-44.5,43.9c-0.1,24.4,19.5,44.3,43.9,44.5c24.4,0.1,44.3-19.5,44.5-43.9c0-0.1,0-0.2,0-0.3
		C626.3,305.2,606.7,285.5,582.4,285.3 M582.4,355.1c-14.2,0.1-25.8-11.2-25.9-25.4c-0.1-14.2,11.2-25.8,25.4-25.9
		c14.2-0.1,25.8,11.2,25.9,25.4S596.5,354.9,582.4,355.1"/>
</g>
</svg>
